<svg xmlns="http://www.w3.org/2000/svg" viewBox="0 0 120 120" role="img" aria-label="SprinkSnap">
  <defs>
    <linearGradient id="blue" x1="16" x2="96" y1="8" y2="114" gradientUnits="userSpaceOnUse">
      <stop stop-color="#006DFF"/>
      <stop offset="1" stop-color="#005BFF"/>
    </linearGradient>
    <linearGradient id="flame" x1="55" x2="86" y1="12" y2="86" gradientUnits="userSpaceOnUse">
      <stop stop-color="#E53935"/>
      <stop offset="1" stop-color="#FF7A18"/>
    </linearGradient>
  </defs>
  <path d="M36 88C16 75 12 55 24 36c6-9 14-18 25-29-3 21 8 28 5 45-2 13-10 25-18 36Z" fill="none" stroke="url(#blue)" stroke-width="9" stroke-linecap="round" stroke-linejoin="round"/>
  <path d="M79 23c17 21 22 45 9 65" fill="none" stroke="url(#blue)" stroke-width="9" stroke-linecap="round"/>
  <path d="M70 13c18 21 25 42 19 59-4 11-12 19-24 23 8-18-6-27-6-43 0-14 7-27 11-39Z" fill="url(#flame)"/>
  <path d="M73 45c8 10 8 22-1 33 2-12-10-15-7-26 1-4 4-7 8-7Z" fill="#FF8A18"/>
  <path d="M42 63h36M39 76h42M51 54h18M52 86h16" stroke="#001A3D" stroke-width="8" stroke-linecap="round"/>
  <path d="M30 91c6 7 15 12 26 14M90 91c-6 7-15 12-26 14" fill="none" stroke="url(#blue)" stroke-width="5" stroke-linecap="round"/>
  <g fill="#005BFF">
    <circle cx="29" cy="99" r="3"/>
    <circle cx="39" cy="106" r="3"/>
    <circle cx="50" cy="112" r="3"/>
    <circle cx="61" cy="115" r="3"/>
    <circle cx="72" cy="112" r="3"/>
    <circle cx="83" cy="106" r="3"/>
    <circle cx="93" cy="99" r="3"/>
  </g>
</svg>
