<svg xmlns="http://www.w3.org/2000/svg" viewBox="0 0 920 250" role="img" aria-labelledby="title desc">
  <title id="title">SprinkSnap logo</title>
  <desc id="desc">SprinkSnap logo with blue water drop, red flame, navy sprinkler head, and the tagline Smarter Design. Code Confident.</desc>
  <defs>
    <linearGradient id="blue" x1="36" x2="224" y1="26" y2="224" gradientUnits="userSpaceOnUse">
      <stop stop-color="#006DFF"/>
      <stop offset="1" stop-color="#005BFF"/>
    </linearGradient>
    <linearGradient id="flame" x1="118" x2="172" y1="42" y2="158" gradientUnits="userSpaceOnUse">
      <stop stop-color="#E53935"/>
      <stop offset="1" stop-color="#FF7A18"/>
    </linearGradient>
  </defs>

  <g transform="translate(24 14)">
    <path d="M82 184C35 153 25 108 52 66c13-20 32-41 58-65-9 48 20 62 13 101-4 31-23 58-41 82Z" fill="none" stroke="url(#blue)" stroke-width="15" stroke-linecap="round" stroke-linejoin="round"/>
    <path d="M174 40c38 48 49 101 20 145" fill="none" stroke="url(#blue)" stroke-width="15" stroke-linecap="round"/>
    <path d="M149 21c42 49 58 98 43 136-9 25-29 43-58 53 18-42-15-62-15-99 0-33 18-62 30-90Z" fill="url(#flame)"/>
    <path d="M156 87c20 24 20 52-1 77 5-28-24-36-17-61 3-10 9-16 18-16Z" fill="#FF8A18"/>
    <path d="M91 117h86M84 143h99M113 97h41M115 164h37" fill="none" stroke="#001A3D" stroke-width="15" stroke-linecap="round"/>
    <path d="M63 176c14 17 35 29 63 34M194 176c-14 17-35 29-63 34" fill="none" stroke="url(#blue)" stroke-width="8" stroke-linecap="round"/>
    <g fill="#005BFF">
      <circle cx="62" cy="198" r="7"/>
      <circle cx="86" cy="215" r="7"/>
      <circle cx="112" cy="227" r="7"/>
      <circle cx="138" cy="232" r="7"/>
      <circle cx="164" cy="227" r="7"/>
      <circle cx="190" cy="215" r="7"/>
      <circle cx="213" cy="198" r="7"/>
    </g>
  </g>

  <g transform="translate(285 69)">
    <text x="0" y="68" fill="#001A3D" font-family="Arial, Helvetica, sans-serif" font-size="84" font-weight="800" letter-spacing="-5">Sprink</text>
    <text x="300" y="68" fill="#005BFF" font-family="Arial, Helvetica, sans-serif" font-size="84" font-weight="800" letter-spacing="-5">Snap</text>
    <text x="575" y="32" fill="#001A3D" font-family="Arial, Helvetica, sans-serif" font-size="20" font-weight="700">&#174;</text>
    <text x="62" y="122" fill="#586174" font-family="Arial, Helvetica, sans-serif" font-size="19" font-weight="800" letter-spacing="6">SMARTER DESIGN. CODE CONFIDENT.</text>
  </g>
</svg>
